:SAMPLES-PER-SECOND 30
:FRAME-RANGE 1-2091
:FULLY-SPECIFIED
:DEGREES
1373
root  72.5369 38.0859 -16.4438 -6.12628 -40.2927 3.51781
RightUpLeg  -11.4388 -9.00256 -20.4777
RightLeg  55.8542 -2.80452 -4.8597
RightFoot  7.41449 -2.4342 14.9727
RightToes  5.82063e-011 0 -3.6325e-017
Spine  10.8997 -1.25223 -7.65493
Spine1  -0.858563 -2.49726 -0.215505
HEad  14.8714 8.07572 1.59592
LeftShoulder1  1.64784 -1.31411 -28.112
LeftArm  -9.0682 -0.813768 -28.6989
LeftForeArm  12.429 1.50256 -16.589
LeftHand  0.241327 1.06534 -6.71977
RightShoulder  2.80288 8.06306 17.6681
RightArm  -43.583 15.3026 -4.56833
RightForeArm  19.4553 11.4906 5.8299
RightHand  0.0134243 -1.4261 0.629128
LeftUpLeg  -19.7898 29.2895 -9.80689
LeftLeg  24.9875 14.4822 6.65029
LeftFoot  -5.33578 -0.431275 8.81712
LeftToes  -6.27584e-011 -2.25241e-010 2.80627e-011
1374
root  72.4454 38.1128 -15.8127 -5.68787 -37.9259 2.80756
RightUpLeg  -15.2915 -8.16334 -19.9511
RightLeg  62.4351 -3.53113 -7.85312
RightFoot  5.06701 -2.33454 16.334
RightToes  5.82063e-011 0 -3.6325e-017
Spine  11.7848 -1.61944 -8.96341
Spine1  -0.884184 -3.3073 0.796959
HEad  14.1464 9.9755 1.27167
LeftShoulder1  1.65563 -1.35537 -27.9788
LeftArm  -7.69812 -1.8726 -29.7839
LeftForeArm  12.5442 0.0908847 -16.5434
LeftHand  0.241488 0.83576 -6.34537
RightShoulder  2.70346 7.20001 18.7843
RightArm  -41.905 14.4261 -4.18425
RightForeArm  19.9632 11.5151 6.06739
RightHand  0.0245786 -1.26243 0.895675
LeftUpLeg  -18.665 26.0339 -9.37393
LeftLeg  25.6258 15.32 6.91627
LeftFoot  -6.41389 -0.327613 8.49721
LeftToes  -6.27584e-011 -2.25241e-010 2.80627e-011
1375
root  72.3301 38.2841 -15.2375 -4.59937 -35.6514 1.40245
RightUpLeg  -19.1772 -7.42088 -18.0968
RightLeg  66.6982 -3.27422 -8.96313
RightFoot  3.5442 -1.88522 14.5464
RightToes  5.82063e-011 0 -3.6325e-017
Spine  12.1633 -1.95139 -9.3158
Spine1  -0.53302 -3.86066 1.67244
HEad  13.3843 10.8967 1.06354
LeftShoulder1  1.69902 -1.52793 -27.666
LeftArm  -7.47847 -3.38525 -31.1931
LeftForeArm  13.8286 -0.638423 -16.3528
LeftHand  0.237296 0.649496 -5.96209
RightShoulder  2.58805 6.11591 20.5652
RightArm  -38.7866 12.7709 -3.64922
RightForeArm  20.2134 11.8363 6.48333
RightHand  0.0361131 -1.13838 1.16877
LeftUpLeg  -17.155 21.4719 -7.92233
LeftLeg  25.1437 17.4988 6.7092
LeftFoot  -6.83012 -0.275833 8.03513
LeftToes  -6.27584e-011 -2.25241e-010 2.80627e-011
1376
root  72.1683 38.4529 -14.7405 -3.3584 -33.9917 0.424347
RightUpLeg  -23.5042 -5.88708 -15.9161
RightLeg  69.3057 -3.02407 -9.58616
RightFoot  1.70047 -1.61901 14.1993
RightToes  5.82063e-011 0 -3.6325e-017
Spine  12.254 -2.08944 -10.1441
Spine1  -0.460431 -4.17027 2.55913
HEad  12.9344 11.6683 0.975518
LeftShoulder1  1.69668 -1.58061 -27.2586
LeftArm  -6.15309 -4.46692 -32.4167
LeftForeArm  14.2794 -2.02467 -16.1509
LeftHand  0.249401 0.382189 -5.88619
RightShoulder  2.51924 5.20177 22.7441
RightArm  -35.5517 10.8789 -3.04206
RightForeArm  20.9831 11.7809 6.91701
RightHand  0.0518631 -0.736512 1.40706
LeftUpLeg  -16.074 16.7241 -6.45014
LeftLeg  24.3655 20.6173 6.04233
LeftFoot  -7.09566 -0.240403 7.62828
LeftToes  -6.27584e-011 -2.25241e-010 2.80627e-011
1377
root  72.0191 38.6432 -14.2748 -2.13123 -32.1527 -0.408081
RightUpLeg  -27.257 -4.31373 -13.7536
RightLeg  69.7724 -2.93722 -9.58816
RightFoot  0.205937 -1.45826 14.3667
RightToes  5.82063e-011 0 -3.6325e-017
Spine  12.4895 -2.43485 -10.8945
Spine1  -0.625147 -4.62304 3.4818
HEad  12.538 12.3876 1.00135
LeftShoulder1  1.68109 -1.5927 -26.8612
LeftArm  -3.8801 -5.01104 -33.1941
LeftForeArm  13.9381 -4.29848 -15.7244
LeftHand  0.2783 -0.03798 -5.9948
RightShoulder  2.39239 4.21527 24.9234
RightArm  -32.0916 8.70419 -2.24649
RightForeArm  21.9395 11.8529 7.28494
RightHand  0.0534817 -0.394338 1.30303
LeftUpLeg  -15.0436 12.1272 -5.2624
LeftLeg  22.9031 23.3775 5.09288
LeftFoot  -7.04011 -0.230382 7.25537
LeftToes  -6.27584e-011 -2.25241e-010 2.80627e-011
1378
root  71.8995 38.8007 -13.8344 -0.928223 -30.2156 -1.00426
RightUpLeg  -30.4915 -2.62277 -11.9028
RightLeg  68.3026 -2.86185 -8.62537
RightFoot  -0.409083 -1.35481 14.0633
RightToes  5.82063e-011 0 -3.6325e-017
Spine  12.888 -2.87434 -11.1699
Spine1  -1.11076 -4.97147 3.91512
HEad  11.741 12.6672 1.19391
LeftShoulder1  1.66023 -1.54835 -26.7332
LeftArm  0.0668688 -5.48302 -33.3299
LeftForeArm  11.6492 -7.4409 -14.9368
LeftHand  0.307095 -0.411498 -6.14046
RightShoulder  2.04877 2.7093 27.0127
RightArm  -27.4155 6.20891 -1.51054
RightForeArm  23.0285 11.9565 7.76085
RightHand  0.0417161 -0.0353759 0.914667
LeftUpLeg  -14.3381 9.36619 -4.73366
LeftLeg  21.0907 24.3196 3.94952
LeftFoot  -6.96313 -0.232671 7.17558
LeftToes  -6.27584e-011 -2.25241e-010 2.80627e-011
